<svg width="157" height="46" viewBox="0 0 157 46" fill="none" xmlns="http://www.w3.org/2000/svg">
<path d="M1.5 19V7H3.0625L15.1172 17.1484H15.1328V7H16.6328V19H15.0703L3.01562 8.76562H3V19H1.5ZM27.0906 19.1719C26.0125 19.1719 25.1219 19.1146 24.4188 19C23.7208 18.8906 23.2 18.6458 22.8563 18.2656C22.5177 17.8854 22.3484 17.2943 22.3484 16.4922C22.3484 15.6745 22.5073 15.0755 22.825 14.6953C23.1479 14.3099 23.6557 14.0599 24.3484 13.9453C25.0464 13.8307 25.9604 13.7734 27.0906 13.7734C28.0073 13.7734 28.7755 13.7943 29.3953 13.8359C30.0151 13.8776 30.5698 13.9505 31.0594 14.0547C31.049 13.362 31.0021 12.8177 30.9188 12.4219C30.8354 12.0208 30.6792 11.724 30.45 11.5312C30.2208 11.3385 29.8849 11.2161 29.4422 11.1641C29.0047 11.1068 28.4214 11.0781 27.6922 11.0781C26.8589 11.0781 26.2052 11.0964 25.7313 11.1328C25.2625 11.1693 24.9214 11.2344 24.7078 11.3281C24.4943 11.4219 24.3589 11.5573 24.3016 11.7344C24.2495 11.9115 24.2234 12.1406 24.2234 12.4219H22.7234C22.7234 11.8594 22.799 11.4062 22.95 11.0625C23.1063 10.7188 23.3693 10.4583 23.7391 10.2812C24.1089 10.1042 24.6141 9.98438 25.2547 9.92188C25.9005 9.85938 26.713 9.82812 27.6922 9.82812C28.7443 9.82812 29.5906 9.89583 30.2313 10.0312C30.8771 10.1667 31.3667 10.4115 31.7 10.7656C32.0385 11.1146 32.2651 11.6042 32.3797 12.2344C32.4995 12.8646 32.5594 13.6771 32.5594 14.6719V19H31.0594V18.3828C30.8823 18.5703 30.6375 18.7214 30.325 18.8359C30.0125 18.9505 29.5958 19.0339 29.075 19.0859C28.5594 19.1432 27.8979 19.1719 27.0906 19.1719ZM27.0906 17.9531C27.9813 17.9531 28.6922 17.9427 29.2234 17.9219C29.7547 17.901 30.1505 17.8438 30.4109 17.75C30.6766 17.6562 30.851 17.5052 30.9344 17.2969C31.0177 17.0885 31.0594 16.7969 31.0594 16.4219V15.0391L27.0906 14.9922C26.3875 14.9818 25.8198 14.9922 25.3875 15.0234C24.9604 15.0495 24.6349 15.112 24.4109 15.2109C24.187 15.3047 24.0359 15.4557 23.9578 15.6641C23.8849 15.8672 23.8484 16.1432 23.8484 16.4922C23.8484 16.8307 23.8849 17.099 23.9578 17.2969C24.0359 17.4948 24.187 17.6406 24.4109 17.7344C24.6349 17.8281 24.9604 17.888 25.3875 17.9141C25.8198 17.9401 26.3875 17.9531 27.0906 17.9531ZM47.275 14.4531C47.275 13.7083 47.2359 13.112 47.1578 12.6641C47.0849 12.2161 46.9208 11.8802 46.6656 11.6562C46.4104 11.4271 46.012 11.2734 45.4703 11.1953C44.9339 11.1172 44.1995 11.0781 43.2672 11.0781C42.4182 11.0781 41.7307 11.1172 41.2047 11.1953C40.6786 11.2734 40.275 11.4271 39.9938 11.6562C39.7125 11.8802 39.5198 12.2161 39.4156 12.6641C39.3115 13.112 39.2594 13.7083 39.2594 14.4531C39.2594 15.224 39.3115 15.8411 39.4156 16.3047C39.5198 16.7682 39.7125 17.1172 39.9938 17.3516C40.275 17.5807 40.6786 17.7344 41.2047 17.8125C41.7307 17.8854 42.4182 17.9219 43.2672 17.9219C44.1995 17.9219 44.9339 17.8854 45.4703 17.8125C46.012 17.7344 46.4104 17.5807 46.6656 17.3516C46.9208 17.1172 47.0849 16.7682 47.1578 16.3047C47.2359 15.8411 47.275 15.224 47.275 14.4531ZM37.7594 22V10H39.2594V11.0234C39.6396 10.5182 40.1604 10.1927 40.8219 10.0469C41.4885 9.90104 42.3036 9.82812 43.2672 9.82812C44.2776 9.82812 45.1318 9.88021 45.8297 9.98438C46.5328 10.0885 47.1005 10.2969 47.5328 10.6094C47.9651 10.9219 48.2802 11.3854 48.4781 12C48.676 12.6146 48.775 13.4323 48.775 14.4531C48.775 15.5052 48.676 16.3464 48.4781 16.9766C48.2802 17.6068 47.9651 18.0807 47.5328 18.3984C47.1005 18.7109 46.5328 18.9167 45.8297 19.0156C45.1318 19.1198 44.2776 19.1719 43.2672 19.1719C42.3036 19.1719 41.4885 19.099 40.8219 18.9531C40.1604 18.8073 39.6396 18.4792 39.2594 17.9688V22H37.7594ZM61.9719 19V7H71.5344C72.4406 7 73.1828 7.08594 73.7609 7.25781C74.3443 7.42448 74.774 7.72396 75.05 8.15625C75.3312 8.58333 75.4719 9.1901 75.4719 9.97656C75.4719 10.6849 75.3078 11.2708 74.9797 11.7344C74.6516 12.1979 74.149 12.4531 73.4719 12.5C74.3573 12.5885 74.9953 12.9062 75.3859 13.4531C75.7766 13.9948 75.9719 14.6771 75.9719 15.5C75.9719 16.2135 75.8885 16.7995 75.7219 17.2578C75.5604 17.7161 75.287 18.0729 74.9016 18.3281C74.5161 18.5781 73.9927 18.7526 73.3312 18.8516C72.675 18.9505 71.8547 19 70.8703 19H61.9719ZM63.4719 12H70.4641C71.2714 12 71.9328 11.9714 72.4484 11.9141C72.9641 11.8568 73.3469 11.6875 73.5969 11.4062C73.8469 11.125 73.9719 10.6484 73.9719 9.97656C73.9719 9.45052 73.8964 9.0651 73.7453 8.82031C73.5995 8.57552 73.3495 8.41927 72.9953 8.35156C72.6411 8.28385 72.1542 8.25 71.5344 8.25H63.4719V12ZM63.4719 17.75H70.8703C71.5839 17.75 72.1724 17.7318 72.6359 17.6953C73.1047 17.6589 73.4719 17.5703 73.7375 17.4297C74.0083 17.2891 74.1984 17.0677 74.3078 16.7656C74.4172 16.4583 74.4719 16.0365 74.4719 15.5C74.4719 14.9479 74.3677 14.5182 74.1594 14.2109C73.9562 13.9036 73.6698 13.6823 73.3 13.5469C72.9354 13.4115 72.5109 13.3281 72.0266 13.2969C71.5422 13.2656 71.0214 13.25 70.4641 13.25H63.4719V17.75ZM86.4297 19.1719C85.4245 19.1719 84.5703 19.1198 83.8672 19.0156C83.1641 18.9167 82.5964 18.7109 82.1641 18.3984C81.7318 18.0807 81.4167 17.6068 81.2188 16.9766C81.0208 16.3464 80.9219 15.5052 80.9219 14.4531C80.9219 13.4323 81.0208 12.6146 81.2188 12C81.4167 11.3854 81.7318 10.9219 82.1641 10.6094C82.5964 10.2969 83.1641 10.0885 83.8672 9.98438C84.5703 9.88021 85.4245 9.82812 86.4297 9.82812C87.4401 9.82812 88.2943 9.88021 88.9922 9.98438C89.6953 10.0885 90.263 10.2969 90.6953 10.6094C91.1276 10.9219 91.4427 11.3854 91.6406 12C91.8385 12.6146 91.9375 13.4323 91.9375 14.4531C91.9375 15.5052 91.8385 16.3464 91.6406 16.9766C91.4427 17.6068 91.1276 18.0807 90.6953 18.3984C90.263 18.7109 89.6953 18.9167 88.9922 19.0156C88.2943 19.1198 87.4401 19.1719 86.4297 19.1719ZM90.4375 14.4531C90.4375 13.7083 90.3984 13.112 90.3203 12.6641C90.2474 12.2161 90.0833 11.8802 89.8281 11.6562C89.5729 11.4271 89.1745 11.2734 88.6328 11.1953C88.0964 11.1172 87.362 11.0781 86.4297 11.0781C85.5026 11.0781 84.7682 11.1172 84.2266 11.1953C83.6849 11.2734 83.2865 11.4271 83.0312 11.6562C82.776 11.8802 82.6094 12.2161 82.5312 12.6641C82.4583 13.112 82.4219 13.7083 82.4219 14.4531C82.4219 15.224 82.4583 15.8411 82.5312 16.3047C82.6094 16.7682 82.776 17.1172 83.0312 17.3516C83.2865 17.5807 83.6849 17.7344 84.2266 17.8125C84.7682 17.8854 85.5026 17.9219 86.4297 17.9219C87.362 17.9219 88.0964 17.8854 88.6328 17.8125C89.1745 17.7344 89.5729 17.5807 89.8281 17.3516C90.0833 17.1172 90.2474 16.7682 90.3203 16.3047C90.3984 15.8411 90.4375 15.224 90.4375 14.4531ZM97.3875 19V7H98.8875V19H97.3875ZM108.752 19C107.835 19 107.101 18.9089 106.548 18.7266C105.996 18.5391 105.595 18.2109 105.345 17.7422C105.101 17.2682 104.978 16.6042 104.978 15.75V7.53906H106.478V10H112.017V11.2344H106.478V15.75C106.478 16.3333 106.53 16.7682 106.634 17.0547C106.744 17.3411 106.96 17.5286 107.283 17.6172C107.611 17.7057 108.101 17.75 108.752 17.75C109.33 17.75 109.783 17.7318 110.111 17.6953C110.444 17.6589 110.689 17.5625 110.845 17.4062C111.002 17.2448 111.101 16.9818 111.142 16.6172C111.184 16.2526 111.205 15.7396 111.205 15.0781H112.533C112.533 15.9427 112.478 16.6354 112.369 17.1562C112.265 17.6771 112.074 18.0703 111.798 18.3359C111.528 18.6016 111.145 18.7786 110.65 18.8672C110.16 18.9557 109.528 19 108.752 19ZM118.084 19V10H119.584V11.2422C119.751 10.9766 119.918 10.7552 120.084 10.5781C120.256 10.401 120.478 10.2604 120.748 10.1562C121.024 10.0521 121.397 9.97917 121.866 9.9375C122.334 9.89062 122.952 9.86719 123.717 9.86719V11.125C122.686 11.125 121.886 11.1615 121.319 11.2344C120.756 11.3073 120.353 11.4323 120.108 11.6094C119.863 11.7812 119.715 12.0208 119.662 12.3281C119.61 12.6354 119.584 13.026 119.584 13.5V19H118.084ZM134.089 19.1719C133.084 19.1719 132.23 19.1198 131.527 19.0156C130.823 18.9167 130.256 18.7109 129.823 18.3984C129.391 18.0807 129.076 17.6068 128.878 16.9766C128.68 16.3464 128.581 15.5052 128.581 14.4531C128.581 13.4323 128.68 12.6146 128.878 12C129.076 11.3854 129.391 10.9219 129.823 10.6094C130.256 10.2969 130.823 10.0885 131.527 9.98438C132.23 9.88021 133.084 9.82812 134.089 9.82812C135.099 9.82812 135.954 9.88021 136.652 9.98438C137.355 10.0885 137.922 10.2969 138.355 10.6094C138.787 10.9219 139.102 11.3854 139.3 12C139.498 12.6146 139.597 13.4323 139.597 14.4531C139.597 15.5052 139.498 16.3464 139.3 16.9766C139.102 17.6068 138.787 18.0807 138.355 18.3984C137.922 18.7109 137.355 18.9167 136.652 19.0156C135.954 19.1198 135.099 19.1719 134.089 19.1719ZM138.097 14.4531C138.097 13.7083 138.058 13.112 137.98 12.6641C137.907 12.2161 137.743 11.8802 137.488 11.6562C137.232 11.4271 136.834 11.2734 136.292 11.1953C135.756 11.1172 135.021 11.0781 134.089 11.0781C133.162 11.0781 132.428 11.1172 131.886 11.1953C131.344 11.2734 130.946 11.4271 130.691 11.6562C130.435 11.8802 130.269 12.2161 130.191 12.6641C130.118 13.112 130.081 13.7083 130.081 14.4531C130.081 15.224 130.118 15.8411 130.191 16.3047C130.269 16.7682 130.435 17.1172 130.691 17.3516C130.946 17.5807 131.344 17.7344 131.886 17.8125C132.428 17.8854 133.162 17.9219 134.089 17.9219C135.021 17.9219 135.756 17.8854 136.292 17.8125C136.834 17.7344 137.232 17.5807 137.488 17.3516C137.743 17.1172 137.907 16.7682 137.98 16.3047C138.058 15.8411 138.097 15.224 138.097 14.4531ZM144.578 19V10H146.078V11.1953C146.302 10.8932 146.578 10.6406 146.906 10.4375C147.24 10.2344 147.682 10.0833 148.234 9.98438C148.792 9.88021 149.521 9.82812 150.422 9.82812C151.599 9.82812 152.526 9.94271 153.203 10.1719C153.885 10.401 154.37 10.8099 154.656 11.3984C154.943 11.987 155.086 12.8203 155.086 13.8984V19H153.578V13.8984C153.578 13.2839 153.526 12.7891 153.422 12.4141C153.318 12.0391 153.138 11.7552 152.883 11.5625C152.633 11.3698 152.286 11.2422 151.844 11.1797C151.401 11.112 150.839 11.0781 150.156 11.0781C149.115 11.0781 148.297 11.1641 147.703 11.3359C147.109 11.5078 146.69 11.7786 146.445 12.1484C146.201 12.513 146.078 12.9896 146.078 13.5781V19H144.578Z" fill="white"/>
<path d="M2.63498 26.9705L154.365 27.1156" stroke="white"/>
<path d="M22.8658 39.9181C22.8658 39.6284 22.843 39.4005 22.7975 39.2345C22.7519 39.0685 22.6494 38.9464 22.4898 38.8683C22.3303 38.7869 22.0829 38.7348 21.7477 38.712C21.4124 38.686 20.9534 38.6681 20.3707 38.6583L17.6559 38.6193C16.9853 38.6095 16.4466 38.5688 16.0396 38.4972C15.6327 38.4256 15.3251 38.3133 15.1168 38.1603C14.9085 38.004 14.7685 37.7957 14.6969 37.5353C14.6285 37.2749 14.5943 36.9493 14.5943 36.5587C14.5943 36.1323 14.6415 35.7807 14.7359 35.504C14.8336 35.2273 15.0077 35.0109 15.2584 34.8546C15.5123 34.6984 15.8704 34.5893 16.3326 34.5275C16.7949 34.4624 17.3922 34.4298 18.1246 34.4298H20.2145C20.8785 34.4298 21.4319 34.451 21.8746 34.4933C22.3173 34.5356 22.6689 34.6333 22.9293 34.7863C23.1897 34.9392 23.3753 35.1769 23.4859 35.4991C23.5999 35.8214 23.6568 36.2641 23.6568 36.8273H22.7193C22.7193 36.3911 22.677 36.0623 22.5924 35.8409C22.511 35.6163 22.3743 35.4633 22.1822 35.382C21.9934 35.3006 21.7379 35.2566 21.4156 35.2501C21.0934 35.2436 20.693 35.2404 20.2145 35.2404H18.1734C17.5908 35.2404 17.1236 35.2517 16.7721 35.2745C16.4238 35.2973 16.1601 35.3494 15.9811 35.4308C15.802 35.5122 15.6816 35.6424 15.6197 35.8214C15.5611 36.0004 15.5318 36.2462 15.5318 36.5587C15.5318 36.8224 15.553 37.034 15.5953 37.1935C15.6376 37.353 15.732 37.4751 15.8785 37.5597C16.0283 37.6411 16.2577 37.698 16.567 37.7306C16.8762 37.7599 17.2978 37.7778 17.8316 37.7843L20.7418 37.8234C21.4254 37.8331 21.9706 37.8738 22.3775 37.9454C22.7877 38.0138 23.0937 38.1261 23.2955 38.2823C23.5006 38.4386 23.6357 38.6502 23.7008 38.9171C23.7691 39.1808 23.8033 39.5144 23.8033 39.9181C23.8033 40.3575 23.761 40.727 23.6764 41.0265C23.595 41.3227 23.4355 41.5603 23.1979 41.7394C22.9602 41.9184 22.6168 42.047 22.1676 42.1251C21.7184 42.2032 21.1275 42.2423 20.3951 42.2423H18.11C17.4426 42.2423 16.8827 42.213 16.4303 42.1544C15.9778 42.0958 15.6165 41.9786 15.3463 41.8029C15.0794 41.6238 14.8873 41.3585 14.7701 41.007C14.6529 40.6554 14.5943 40.1866 14.5943 39.6007H15.5318C15.5318 40.0597 15.5693 40.4145 15.6441 40.6652C15.719 40.9158 15.8492 41.0965 16.0348 41.2072C16.2236 41.3146 16.4856 41.3797 16.8209 41.4025C17.1594 41.422 17.5891 41.4318 18.11 41.4318H20.3463C20.929 41.4318 21.3896 41.4139 21.7281 41.3781C22.0667 41.339 22.3173 41.2674 22.4801 41.1632C22.6428 41.0558 22.747 40.9028 22.7926 40.7042C22.8414 40.5057 22.8658 40.2436 22.8658 39.9181ZM29.015 42.1935C28.3868 42.1935 27.8529 42.1609 27.4135 42.0958C26.974 42.034 26.6192 41.9054 26.349 41.7101C26.0788 41.5115 25.8819 41.2153 25.7582 40.8214C25.6345 40.4275 25.5727 39.9018 25.5727 39.2443C25.5727 38.6062 25.6345 38.0952 25.7582 37.7111C25.8819 37.3269 26.0788 37.0372 26.349 36.8419C26.6192 36.6466 26.974 36.5164 27.4135 36.4513C27.8529 36.3862 28.3868 36.3536 29.015 36.3536C29.6466 36.3536 30.1804 36.3862 30.6166 36.4513C31.0561 36.5164 31.4109 36.6466 31.6811 36.8419C31.9512 37.0372 32.1482 37.3269 32.2719 37.7111C32.3956 38.0952 32.4574 38.6062 32.4574 39.2443C32.4574 39.9018 32.3956 40.4275 32.2719 40.8214C32.1482 41.2153 31.9512 41.5115 31.6811 41.7101C31.4109 41.9054 31.0561 42.034 30.6166 42.0958C30.1804 42.1609 29.6466 42.1935 29.015 42.1935ZM31.5199 39.2443C31.5199 38.7788 31.4955 38.406 31.4467 38.1261C31.4011 37.8462 31.2986 37.6362 31.1391 37.4962C30.9796 37.353 30.7305 37.257 30.392 37.2081C30.0567 37.1593 29.5977 37.1349 29.015 37.1349C28.4356 37.1349 27.9766 37.1593 27.6381 37.2081C27.2995 37.257 27.0505 37.353 26.891 37.4962C26.7315 37.6362 26.6273 37.8462 26.5785 38.1261C26.5329 38.406 26.5102 38.7788 26.5102 39.2443C26.5102 39.726 26.5329 40.1118 26.5785 40.4015C26.6273 40.6912 26.7315 40.9093 26.891 41.0558C27.0505 41.199 27.2995 41.295 27.6381 41.3439C27.9766 41.3894 28.4356 41.4122 29.015 41.4122C29.5977 41.4122 30.0567 41.3894 30.392 41.3439C30.7305 41.295 30.9796 41.199 31.1391 41.0558C31.2986 40.9093 31.4011 40.6912 31.4467 40.4015C31.4955 40.1118 31.5199 39.726 31.5199 39.2443ZM35.1887 42.0861V37.174H34.2512V36.4611H35.1887V36.2169C35.1887 35.6831 35.2749 35.2729 35.4475 34.9865C35.6232 34.7 35.8951 34.5031 36.2629 34.3956C36.634 34.2882 37.1109 34.2345 37.6936 34.2345H38.7824V34.9962H37.6887C37.2232 34.9962 36.8798 35.0255 36.6584 35.0841C36.437 35.1427 36.2922 35.2599 36.2238 35.4357C36.1587 35.6082 36.1262 35.8686 36.1262 36.2169V36.4611H38.7824V37.174H36.1262V42.0861H35.1887ZM42.71 42.0861C42.137 42.0861 41.6781 42.0291 41.333 41.9152C40.988 41.798 40.7373 41.5929 40.5811 41.2999C40.4281 41.0037 40.3516 40.5887 40.3516 40.0548V34.923H41.2891V36.4611H44.751V37.2325H41.2891V40.0548C41.2891 40.4194 41.3216 40.6912 41.3867 40.8702C41.4551 41.0493 41.5902 41.1665 41.792 41.2218C41.9971 41.2771 42.3031 41.3048 42.71 41.3048C43.0713 41.3048 43.3545 41.2934 43.5596 41.2706C43.7679 41.2478 43.9209 41.1876 44.0186 41.09C44.1162 40.9891 44.1781 40.8247 44.2041 40.5968C44.2301 40.3689 44.2432 40.0483 44.2432 39.6349H45.0732C45.0732 40.1753 45.0391 40.6082 44.9707 40.9337C44.9056 41.2592 44.7868 41.505 44.6143 41.671C44.445 41.837 44.2057 41.9477 43.8965 42.0031C43.5905 42.0584 43.195 42.0861 42.71 42.0861ZM49.0203 42.0861L46.8621 36.4611H47.9266L49.6404 41.3292H49.6502L51.5203 36.4611H52.4578L54.3084 41.3292H54.3182L56.0516 36.4611H57.116L54.9578 42.0861H53.7078L51.9939 37.5304H51.9842L50.2703 42.0861H49.0203ZM61.4391 42.1935C60.7652 42.1935 60.2086 42.1577 59.7691 42.0861C59.3329 42.0177 59.0074 41.8647 58.7926 41.6271C58.581 41.3894 58.4752 41.02 58.4752 40.5187C58.4752 40.0076 58.5745 39.6333 58.773 39.3956C58.9749 39.1547 59.2923 38.9985 59.7252 38.9269C60.1614 38.8553 60.7327 38.8195 61.4391 38.8195C62.012 38.8195 62.4921 38.8325 62.8795 38.8585C63.2669 38.8846 63.6135 38.9301 63.9195 38.9952C63.913 38.5623 63.8837 38.2221 63.8316 37.9747C63.7796 37.7241 63.6819 37.5385 63.5387 37.4181C63.3954 37.2976 63.1855 37.2212 62.9088 37.1886C62.6354 37.1528 62.2708 37.1349 61.815 37.1349C61.2942 37.1349 60.8857 37.1463 60.5895 37.1691C60.2965 37.1919 60.0833 37.2325 59.9498 37.2911C59.8163 37.3497 59.7317 37.4344 59.6959 37.545C59.6633 37.6557 59.6471 37.799 59.6471 37.9747H58.7096C58.7096 37.6232 58.7568 37.34 58.8512 37.1251C58.9488 36.9103 59.1132 36.7475 59.3443 36.6368C59.5755 36.5262 59.8912 36.4513 60.2916 36.4122C60.6952 36.3732 61.2031 36.3536 61.815 36.3536C62.4726 36.3536 63.0016 36.396 63.402 36.4806C63.8056 36.5652 64.1116 36.7182 64.3199 36.9396C64.5315 37.1577 64.6731 37.4637 64.7447 37.8575C64.8196 38.2514 64.857 38.7592 64.857 39.381V42.0861H63.9195V41.7003C63.8089 41.8175 63.6559 41.9119 63.4605 41.9835C63.2652 42.0551 63.0048 42.1072 62.6793 42.1398C62.357 42.1756 61.9436 42.1935 61.4391 42.1935ZM61.4391 41.4318C61.9957 41.4318 62.44 41.4253 62.7721 41.4122C63.1041 41.3992 63.3515 41.3634 63.5143 41.3048C63.6803 41.2462 63.7893 41.1518 63.8414 41.0216C63.8935 40.8914 63.9195 40.7091 63.9195 40.4747V39.6105L61.4391 39.5812C60.9996 39.5747 60.6448 39.5812 60.3746 39.6007C60.1077 39.617 59.9042 39.656 59.7643 39.7179C59.6243 39.7765 59.5299 39.8709 59.4811 40.0011C59.4355 40.1281 59.4127 40.3006 59.4127 40.5187C59.4127 40.7303 59.4355 40.8979 59.4811 41.0216C59.5299 41.1453 59.6243 41.2365 59.7643 41.295C59.9042 41.3536 60.1077 41.3911 60.3746 41.4073C60.6448 41.4236 60.9996 41.4318 61.4391 41.4318ZM66.8852 42.0861V36.4611H67.8227V37.2374C67.9268 37.0714 68.031 36.9331 68.1352 36.8224C68.2426 36.7117 68.3809 36.6238 68.5502 36.5587C68.7227 36.4936 68.9555 36.448 69.2484 36.422C69.5414 36.3927 69.9272 36.3781 70.4057 36.3781V37.1642C69.7611 37.1642 69.2615 37.187 68.9066 37.2325C68.5551 37.2781 68.3028 37.3562 68.1498 37.4669C67.9968 37.5743 67.904 37.7241 67.8715 37.9161C67.8389 38.1082 67.8227 38.3523 67.8227 38.6486V42.0861H66.8852ZM78.7424 40.4161C78.7424 40.8361 78.6789 41.1665 78.552 41.4073C78.4283 41.6482 78.2378 41.824 77.9807 41.9347C77.7235 42.0454 77.3947 42.1154 76.9943 42.1447C76.5972 42.1772 76.1236 42.1935 75.5734 42.1935C74.9452 42.1935 74.4113 42.1609 73.9719 42.0958C73.5357 42.034 73.1825 41.9054 72.9123 41.7101C72.6454 41.5115 72.4501 41.2153 72.3264 40.8214C72.2059 40.4275 72.1457 39.9018 72.1457 39.2443C72.1457 38.6062 72.2043 38.0952 72.3215 37.7111C72.4419 37.3269 72.6356 37.0372 72.9025 36.8419C73.1695 36.6466 73.5194 36.5164 73.9523 36.4513C74.3885 36.3862 74.9208 36.3536 75.549 36.3536C76.2684 36.3536 76.8641 36.4041 77.3361 36.505C77.8081 36.6059 78.1597 36.798 78.3908 37.0812C78.6252 37.3644 78.7424 37.7794 78.7424 38.3263V39.5323H73.0881C73.0913 39.949 73.1206 40.2827 73.176 40.5333C73.2313 40.784 73.342 40.9728 73.508 41.0997C73.674 41.2267 73.9214 41.3113 74.2502 41.3536C74.5822 41.3927 75.0233 41.4122 75.5734 41.4122C76.0682 41.4122 76.467 41.4025 76.7697 41.3829C77.0757 41.3634 77.3068 41.3211 77.4631 41.256C77.6226 41.1876 77.73 41.0867 77.7854 40.9532C77.8407 40.8198 77.8684 40.6407 77.8684 40.4161H78.7424ZM75.549 37.1349C75.0184 37.1349 74.5904 37.1544 74.2648 37.1935C73.9426 37.2325 73.6968 37.309 73.5275 37.423C73.3583 37.5337 73.2427 37.6997 73.1809 37.921C73.1223 38.1424 73.0913 38.4337 73.0881 38.795H77.8439V38.3263C77.8439 38.0919 77.8163 37.8982 77.7609 37.7452C77.7089 37.589 77.6047 37.4669 77.4484 37.379C77.2922 37.2879 77.0611 37.2244 76.7551 37.1886C76.4523 37.1528 76.0503 37.1349 75.549 37.1349ZM84.5125 42.0861V34.5861H91.8758V35.3673H85.45V37.8673H91.6072V38.6486H85.45V41.3048H92.0125V42.0861H84.5125ZM93.6695 42.0861V36.4611H94.607V37.2081C94.747 37.0193 94.9195 36.8615 95.1246 36.7345C95.3329 36.6075 95.6096 36.5131 95.9547 36.4513C96.303 36.3862 96.7587 36.3536 97.3219 36.3536C98.0576 36.3536 98.637 36.4253 99.0602 36.5685C99.4866 36.7117 99.7893 36.9672 99.9684 37.3351C100.147 37.7029 100.237 38.2238 100.237 38.8976V42.0861H99.2945V38.8976C99.2945 38.5135 99.262 38.2042 99.1969 37.9698C99.1318 37.7355 99.0195 37.5581 98.86 37.4376C98.7037 37.3172 98.4872 37.2374 98.2105 37.1984C97.9339 37.156 97.5823 37.1349 97.1559 37.1349C96.5048 37.1349 95.9938 37.1886 95.6227 37.296C95.2516 37.4034 94.9895 37.5727 94.8365 37.8038C94.6835 38.0317 94.607 38.3295 94.607 38.6974V42.0861H93.6695ZM105.624 44.2296C105.126 44.2296 104.672 44.2166 104.262 44.1906C103.855 44.1678 103.505 44.1092 103.212 44.0148C102.919 43.9236 102.693 43.7771 102.534 43.5753C102.374 43.3767 102.294 43.1033 102.294 42.755H103.232C103.232 42.9829 103.32 43.1456 103.496 43.2433C103.675 43.3409 103.941 43.3995 104.296 43.4191C104.651 43.4386 105.094 43.4484 105.624 43.4484C106.018 43.4484 106.355 43.4353 106.635 43.4093C106.915 43.3865 107.143 43.3165 107.319 43.1993C107.498 43.0822 107.628 42.8852 107.709 42.6085C107.794 42.3351 107.836 41.9493 107.836 41.4513V41.3195C107.608 41.6124 107.294 41.8061 106.894 41.9005C106.497 41.9949 106.004 42.0421 105.414 42.0421C104.806 42.0421 104.287 42.0079 103.857 41.9396C103.427 41.868 103.077 41.7345 102.807 41.5392C102.54 41.3439 102.345 41.0607 102.221 40.6896C102.097 40.3185 102.036 39.8335 102.036 39.2345C102.036 38.5965 102.097 38.0854 102.221 37.7013C102.345 37.3172 102.54 37.0291 102.807 36.837C103.077 36.6417 103.427 36.5131 103.857 36.4513C104.287 36.3862 104.806 36.3536 105.414 36.3536C106.004 36.3536 106.497 36.3976 106.894 36.4855C107.294 36.5701 107.608 36.7605 107.836 37.0568V36.4611H108.774V41.4904C108.761 42.1088 108.683 42.6004 108.539 42.965C108.396 43.3328 108.191 43.6062 107.924 43.7853C107.661 43.9676 107.335 44.0864 106.948 44.1417C106.564 44.2003 106.122 44.2296 105.624 44.2296ZM107.836 39.2345C107.836 38.769 107.807 38.3979 107.748 38.1212C107.693 37.8413 107.582 37.6313 107.416 37.4913C107.254 37.3481 107.011 37.2537 106.689 37.2081C106.37 37.1593 105.945 37.1349 105.414 37.1349C104.855 37.1349 104.41 37.1593 104.081 37.2081C103.756 37.2537 103.513 37.3481 103.354 37.4913C103.194 37.6313 103.09 37.8413 103.041 38.1212C102.996 38.3979 102.973 38.769 102.973 39.2345C102.973 39.6577 102.996 40.0027 103.041 40.2697C103.09 40.5366 103.193 40.7417 103.349 40.8849C103.509 41.0281 103.753 41.1274 104.081 41.1827C104.41 41.2348 104.855 41.2609 105.414 41.2609C105.945 41.2609 106.37 41.2348 106.689 41.1827C107.011 41.1274 107.254 41.0281 107.416 40.8849C107.582 40.7417 107.693 40.5366 107.748 40.2697C107.807 40.0027 107.836 39.6577 107.836 39.2345ZM110.743 42.0861V36.7736H111.681V42.0861H110.743ZM110.743 35.5236V34.5861H111.681V35.5236H110.743ZM113.65 42.0861V36.4611H114.588V37.2081C114.728 37.0193 114.9 36.8615 115.105 36.7345C115.314 36.6075 115.59 36.5131 115.936 36.4513C116.284 36.3862 116.74 36.3536 117.303 36.3536C118.038 36.3536 118.618 36.4253 119.041 36.5685C119.467 36.7117 119.77 36.9672 119.949 37.3351C120.128 37.7029 120.218 38.2238 120.218 38.8976V42.0861H119.275V38.8976C119.275 38.5135 119.243 38.2042 119.178 37.9698C119.113 37.7355 119 37.5581 118.841 37.4376C118.685 37.3172 118.468 37.2374 118.191 37.1984C117.915 37.156 117.563 37.1349 117.137 37.1349C116.486 37.1349 115.975 37.1886 115.604 37.296C115.232 37.4034 114.97 37.5727 114.817 37.8038C114.664 38.0317 114.588 38.3295 114.588 38.6974V42.0861H113.65ZM128.594 40.4161C128.594 40.8361 128.53 41.1665 128.403 41.4073C128.279 41.6482 128.089 41.824 127.832 41.9347C127.575 42.0454 127.246 42.1154 126.846 42.1447C126.448 42.1772 125.975 42.1935 125.425 42.1935C124.796 42.1935 124.263 42.1609 123.823 42.0958C123.387 42.034 123.034 41.9054 122.763 41.7101C122.497 41.5115 122.301 41.2153 122.178 40.8214C122.057 40.4275 121.997 39.9018 121.997 39.2443C121.997 38.6062 122.055 38.0952 122.173 37.7111C122.293 37.3269 122.487 37.0372 122.754 36.8419C123.021 36.6466 123.371 36.5164 123.804 36.4513C124.24 36.3862 124.772 36.3536 125.4 36.3536C126.12 36.3536 126.715 36.4041 127.187 36.505C127.659 36.6059 128.011 36.798 128.242 37.0812C128.476 37.3644 128.594 37.7794 128.594 38.3263V39.5323H122.939C122.943 39.949 122.972 40.2827 123.027 40.5333C123.082 40.784 123.193 40.9728 123.359 41.0997C123.525 41.2267 123.773 41.3113 124.101 41.3536C124.433 41.3927 124.874 41.4122 125.425 41.4122C125.919 41.4122 126.318 41.4025 126.621 41.3829C126.927 41.3634 127.158 41.3211 127.314 41.256C127.474 41.1876 127.581 41.0867 127.637 40.9532C127.692 40.8198 127.72 40.6407 127.72 40.4161H128.594ZM125.4 37.1349C124.87 37.1349 124.442 37.1544 124.116 37.1935C123.794 37.2325 123.548 37.309 123.379 37.423C123.209 37.5337 123.094 37.6997 123.032 37.921C122.973 38.1424 122.943 38.4337 122.939 38.795H127.695V38.3263C127.695 38.0919 127.667 37.8982 127.612 37.7452C127.56 37.589 127.456 37.4669 127.3 37.379C127.143 37.2879 126.912 37.2244 126.606 37.1886C126.304 37.1528 125.902 37.1349 125.4 37.1349ZM136.95 40.4161C136.95 40.8361 136.886 41.1665 136.759 41.4073C136.636 41.6482 136.445 41.824 136.188 41.9347C135.931 42.0454 135.602 42.1154 135.202 42.1447C134.805 42.1772 134.331 42.1935 133.781 42.1935C133.153 42.1935 132.619 42.1609 132.179 42.0958C131.743 42.034 131.39 41.9054 131.12 41.7101C130.853 41.5115 130.657 41.2153 130.534 40.8214C130.413 40.4275 130.353 39.9018 130.353 39.2443C130.353 38.6062 130.412 38.0952 130.529 37.7111C130.649 37.3269 130.843 37.0372 131.11 36.8419C131.377 36.6466 131.727 36.5164 132.16 36.4513C132.596 36.3862 133.128 36.3536 133.756 36.3536C134.476 36.3536 135.072 36.4041 135.544 36.505C136.016 36.6059 136.367 36.798 136.598 37.0812C136.833 37.3644 136.95 37.7794 136.95 38.3263V39.5323H131.296C131.299 39.949 131.328 40.2827 131.383 40.5333C131.439 40.784 131.549 40.9728 131.715 41.0997C131.881 41.2267 132.129 41.3113 132.458 41.3536C132.79 41.3927 133.231 41.4122 133.781 41.4122C134.276 41.4122 134.674 41.4025 134.977 41.3829C135.283 41.3634 135.514 41.3211 135.671 41.256C135.83 41.1876 135.937 41.0867 135.993 40.9532C136.048 40.8198 136.076 40.6407 136.076 40.4161H136.95ZM133.756 37.1349C133.226 37.1349 132.798 37.1544 132.472 37.1935C132.15 37.2325 131.904 37.309 131.735 37.423C131.566 37.5337 131.45 37.6997 131.388 37.921C131.33 38.1424 131.299 38.4337 131.296 38.795H136.051V38.3263C136.051 38.0919 136.024 37.8982 135.968 37.7452C135.916 37.589 135.812 37.4669 135.656 37.379C135.5 37.2879 135.268 37.2244 134.962 37.1886C134.66 37.1528 134.258 37.1349 133.756 37.1349ZM138.963 42.0861V36.4611H139.901V37.2374C140.005 37.0714 140.109 36.9331 140.213 36.8224C140.321 36.7117 140.459 36.6238 140.628 36.5587C140.801 36.4936 141.034 36.448 141.327 36.422C141.62 36.3927 142.005 36.3781 142.484 36.3781V37.1642C141.839 37.1642 141.34 37.187 140.985 37.2325C140.633 37.2781 140.381 37.3562 140.228 37.4669C140.075 37.5743 139.982 37.7241 139.95 37.9161C139.917 38.1082 139.901 38.3523 139.901 38.6486V42.0861H138.963Z" fill="white"/>
</svg>
