<svg width="113" height="20" viewBox="0 0 113 20" fill="none" xmlns="http://www.w3.org/2000/svg">
<path d="M1.98 17.98V4.06H2.76L12.48 13.52V4.06H13.22V17.98H1.98ZM16.8247 4.08H17.6047L23.3247 18H22.5247L20.6447 13.4H13.7847L11.8847 18H11.1047L16.8247 4.08ZM14.0847 12.68H20.3447L17.2047 5.04L14.0847 12.68ZM23.1294 18H22.3894V4.08H27.9894C28.9227 4.08 29.7827 4.28 30.5694 4.68C31.3694 5.08 32.0027 5.64667 32.4694 6.38C32.936 7.11333 33.1694 7.96 33.1694 8.92C33.1694 9.84 32.9294 10.6867 32.4494 11.46C31.9827 12.2333 31.3427 12.8267 30.5294 13.24C29.8227 13.6 28.976 13.78 27.9894 13.78H23.1294V18ZM23.1294 13.04H27.9894C28.8427 13.04 29.5427 12.9067 30.0894 12.64C30.796 12.3067 31.3627 11.8067 31.7894 11.14C32.216 10.4733 32.4294 9.73333 32.4294 8.92C32.4294 8.12 32.216 7.38667 31.7894 6.72C31.3627 6.05333 30.7894 5.55333 30.0694 5.22C29.5227 4.95333 28.8294 4.82 27.9894 4.82H23.1294V13.04ZM47.5988 4.08C48.4788 4.08 49.1788 4.21333 49.6988 4.48C50.3254 4.8 50.8054 5.24 51.1388 5.8C51.4854 6.36 51.6588 6.98667 51.6588 7.68C51.6588 8.33333 51.4854 8.94 51.1388 9.5C50.7921 10.0467 50.3188 10.48 49.7188 10.8C50.4388 11.0533 51.0454 11.4933 51.5388 12.12C52.0321 12.7467 52.2788 13.4533 52.2788 14.24C52.2788 14.9333 52.0988 15.5733 51.7388 16.16C51.3921 16.7333 50.9254 17.1867 50.3388 17.52C50.0454 17.68 49.7188 17.8 49.3588 17.88C48.9988 17.96 48.5188 18 47.9188 18H41.7588V4.08H47.5988ZM56.4234 3.78C57.4634 3.78 58.4234 4.04 59.3034 4.56C60.1834 5.06667 60.8768 5.76 61.3834 6.64C61.9034 7.52 62.1634 8.48 62.1634 9.52V12.56C62.1634 13.6 61.9034 14.56 61.3834 15.44C60.8768 16.32 60.1834 17.02 59.3034 17.54C58.4234 18.0467 57.4634 18.3 56.4234 18.3C55.3834 18.3 54.4234 18.0467 53.5434 17.54C52.6634 17.02 51.9634 16.32 51.4434 15.44C50.9368 14.56 50.6834 13.6 50.6834 12.56V9.52C50.6834 8.48 50.9368 7.52 51.4434 6.64C51.9634 5.76 52.6634 5.06667 53.5434 4.56C54.4234 4.04 55.3834 3.78 56.4234 3.78ZM51.4234 12.56C51.4234 13.4667 51.6434 14.3067 52.0834 15.08C52.5368 15.84 53.1434 16.4467 53.9034 16.9C54.6768 17.34 55.5168 17.56 56.4234 17.56C57.3301 17.56 58.1634 17.34 58.9234 16.9C59.6968 16.4467 60.3034 15.84 60.7434 15.08C61.1968 14.3067 61.4234 13.4667 61.4234 12.56V9.52C61.4234 8.61333 61.1968 7.78 60.7434 7.02C60.3034 6.24667 59.6968 5.64 58.9234 5.2C58.1634 4.74667 57.3301 4.52 56.4234 4.52C55.5168 4.52 54.6768 4.74667 53.9034 5.2C53.1434 5.64 52.5368 6.24667 52.0834 7.02C51.6434 7.78 51.4234 8.61333 51.4234 9.52V12.56ZM61.9281 18V4.08H62.6681V17.26H72.3681V18H61.9281ZM81.6528 4.08V4.82H76.3928V18H75.6728V4.82H70.4128V4.08H81.6528ZM88.8575 4.54C89.6575 4.91333 90.2842 5.46667 90.7375 6.2C91.2042 6.93333 91.4375 7.74667 91.4375 8.64C91.4375 9.68 91.1175 10.6133 90.4775 11.44C89.8508 12.2533 89.0442 12.7933 88.0575 13.06L91.5975 18H90.7175L87.2975 13.2L86.6575 13.22H81.6375V18H80.8975V4.08H86.1975C86.7842 4.08 87.2842 4.12 87.6975 4.2C88.1242 4.26667 88.5108 4.38 88.8575 4.54ZM86.8575 12.48C87.5508 12.48 88.1908 12.3067 88.7775 11.96C89.3642 11.6133 89.8308 11.1467 90.1775 10.56C90.5242 9.97333 90.6975 9.33333 90.6975 8.64C90.6975 7.86667 90.4908 7.16667 90.0775 6.54C89.6775 5.91333 89.1175 5.44667 88.3975 5.14C87.8775 4.92667 87.1442 4.82 86.1975 4.82H81.6375V12.48H86.8575ZM95.6422 3.78C96.6822 3.78 97.6422 4.04 98.5222 4.56C99.4022 5.06667 100.096 5.76 100.602 6.64C101.122 7.52 101.382 8.48 101.382 9.52V12.56C101.382 13.6 101.122 14.56 100.602 15.44C100.096 16.32 99.4022 17.02 98.5222 17.54C97.6422 18.0467 96.6822 18.3 95.6422 18.3C94.6022 18.3 93.6422 18.0467 92.7622 17.54C91.8822 17.02 91.1822 16.32 90.6622 15.44C90.1555 14.56 89.9022 13.6 89.9022 12.56V9.52C89.9022 8.48 90.1555 7.52 90.6622 6.64C91.1822 5.76 91.8822 5.06667 92.7622 4.56C93.6422 4.04 94.6022 3.78 95.6422 3.78ZM90.6422 12.56C90.6422 13.4667 90.8622 14.3067 91.3022 15.08C91.7555 15.84 92.3622 16.4467 93.1222 16.9C93.8955 17.34 94.7355 17.56 95.6422 17.56C96.5489 17.56 97.3822 17.34 98.1422 16.9C98.9155 16.4467 99.5222 15.84 99.9622 15.08C100.416 14.3067 100.642 13.4667 100.642 12.56V9.52C100.642 8.61333 100.416 7.78 99.9622 7.02C99.5222 6.24667 98.9155 5.64 98.1422 5.2C97.3822 4.74667 96.5489 4.52 95.6422 4.52C94.7355 4.52 93.8955 4.74667 93.1222 5.2C92.3622 5.64 91.7555 6.24667 91.3022 7.02C90.8622 7.78 90.6422 8.61333 90.6422 9.52V12.56ZM100.007 18V4.08H100.787L110.507 13.52V4.08H111.247V18H110.507V14.56L100.747 5.04V18H100.007Z" fill="#4A4947"/>
</svg>
